#!OML:ASF H:\IndianDance\Patient Classification 1\Patient 1\Session 1\dancer.ASF
:FULLY-SPECIFIED
:DEGREES
2611
root 1.68518 16.0848 -4.63859 -169.457 16.7482 -176.232
lowerback 6.6105 -0.425511 -3.26507
upperback -8.59612 -0.640247 -1.01191
thorax -13.0466 0.144703 0.789118
lowerneck -17.514 -5.32571 -3.1313
upperneck 10.4386 -7.06461 4.55396
head 6.29717 -3.14459 1.22106
rclavicle 1.78906e-014 -6.59965e-014
rhumerus -19.6186 -14.4881 -39.255
rradius 74.3572
rwrist -49.6773
rhand -49.0744 -11.2829
rfingers 7.12502
rthumb -21.7005 -40.0867
lclavicle 1.78906e-014 -6.59965e-014
lhumerus 1.352 -42.0934 13.646
lradius 126.43
lwrist 16.4346
lhand -53.7508 318.271
lfingers 7.12502
lthumb -26.1848 -13.5149
rfemur -200.444 184.244 206.096
rtibia 40.4547
rfoot -6.47939 -364.213
rtoes -8.88072
lfemur -39.5977 10.2223 -5.13792
ltibia 69.4449
lfoot -0.3404 -7.40001
ltoes -12.4266
2612
root 1.88136 16.0067 -4.57111 -169.516 17.2045 -175.984
lowerback 7.18011 -0.134097 -2.86595
upperback -8.49036 -0.271228 -1.33658
thorax -13.2962 0.25372 0.145438
lowerneck -17.7268 -4.39116 -2.64504
upperneck 10.4474 -5.82757 3.94192
head 6.25246 -2.58087 1.08007
rclavicle 4.72114e-014 -2.06736e-014
rhumerus -21.8344 -11.8032 -40.6573
rradius 78.9376
rwrist -44.575
rhand -50.2317 -8.89392
rfingers 7.12502
rthumb -22.8115 -37.565
lclavicle 4.72114e-014 -2.06736e-014
lhumerus -1.3511 -39.2844 15.8765
lradius 125.352
lwrist 18.8751
lhand -54.5504 319.781
lfingers 7.12502
lthumb -26.9501 -12.1212
rfemur -200.163 184.526 207.444
rtibia 40.3805
rfoot -7.87607 -364.942
rtoes -8.11245
lfemur -41.3954 10.9041 -6.45349
ltibia 71.6179
lfoot -1.16633 -9.15455
ltoes -12.9606
2613
root 2.07431 15.9223 -4.50548 -169.477 17.7179 -175.614
lowerback 7.66748 0.195612 -2.3251
upperback -8.38898 0.181486 -1.62844
thorax -13.4906 0.388426 -0.564613
lowerneck -17.887 -3.44828 -2.15799
upperneck 10.3631 -4.58302 3.34939
head 6.18347 -2.01237 0.944997
rclavicle -1.08338e-014 4.77083e-015
rhumerus -24.0535 -9.15797 -42.1158
rradius 83.3487
rwrist -39.4372
rhand -51.1338 -6.067
rfingers 7.12502
rthumb -23.6769 -34.6288
lclavicle -1.08338e-014 4.77083e-015
lhumerus -3.69013 -36.0796 17.7629
lradius 123.99
lwrist 21.5827
lhand -55.1123 322.153
lfingers 7.12502
lthumb -27.4876 -9.83323
rfemur -200.017 184.831 208.869
rtibia 40.4343
rfoot -9.17702 -365.5
rtoes -7.05122
lfemur -43.2245 11.5695 -7.79802
ltibia 73.5426
lfoot -1.89957 -10.9025
ltoes -13.4544
2614
root 2.26414 15.833 -4.44204 -169.324 18.2907 -175.137
lowerback 8.04993 0.558097 -1.67578
upperback -8.29908 0.707777 -1.89206
thorax -13.6178 0.548064 -1.32456
lowerneck -17.9965 -2.49557 -1.65696
upperneck 10.1986 -3.33363 2.77969
head 6.09433 -1.4386 0.813972
rclavicle 2.29596e-014 4.29375e-014
rhumerus -26.2447 -6.53846 -43.635
rradius 87.5247
rwrist -34.3566
rhand -51.8825 -2.47468
rfingers 7.12502
rthumb -24.3949 -30.9417
lclavicle 2.29596e-014 4.29375e-014
lhumerus -5.63952 -32.5577 19.2911
lradius 122.326
lwrist 24.4889
lhand -55.3841 325.467
lfingers 7.12502
lthumb -27.7475 -6.561
rfemur -199.996 185.158 210.35
rtibia 40.5856
rfoot -10.4427 -365.848
rtoes -5.68176
lfemur -45.0965 12.2123 -9.18862
ltibia 75.2041
lfoot -2.53271 -12.6898
ltoes -13.9444
2615
root 2.45092 15.7404 -4.38091 -169.05 18.9279 -174.575
lowerback 8.31654 0.957432 -0.958029
upperback -8.22529 1.30706 -2.13089
thorax -13.6717 0.737556 -2.1132
lowerneck -18.0712 -1.54035 -1.15059
upperneck 9.97657 -2.08773 2.23018
head 5.99509 -0.863422 0.686148
rclavicle 4.23411e-014 -5.88403e-014
rhumerus -28.3764 -3.93288 -45.2094
rradius 91.4202
rwrist -29.3619
rhand -52.4486 1.73298
rfingers 7.12502
rthumb -24.9375 -26.6599
lclavicle 4.23411e-014 -5.88403e-014
lhumerus -7.18695 -28.8153 20.4757
lradius 120.363
lwrist 27.4896
lhand -55.387 329.829
lfingers 7.12502
lthumb -27.7502 -2.19928
rfemur -200.083 185.491 211.858
rtibia 40.8027
rfoot -11.7026 -365.953
rtoes -4.03104
lfemur -47.0103 12.8222 -10.6436
ltibia 76.5843
lfoot -3.02433 -14.5209
ltoes -14.3285
2616
root 2.63506 15.6461 -4.32238 -168.669 19.6265 -173.967
lowerback 8.47809 1.38964 -0.211939
upperback -8.17114 1.96471 -2.36026
thorax -13.6596 0.954633 -2.91924
lowerneck -18.1077 -0.58919 -0.649378
upperneck 9.70678 -0.854389 1.71898
head 5.8882 -0.289895 0.568078
rclavicle -6.01324e-014 1.74931e-014
rhumerus -30.4086 -1.33577 -46.8329
rradius 94.9697
rwrist -24.4984
rhand -52.8626 6.6082
rfingers 7.12502
rthumb -25.3341 -21.7291
lclavicle -6.01324e-014 1.74931e-014
lhumerus -8.34359 -24.9539 21.3364
lradius 118.11
lwrist 30.488
lhand -55.1264 335.453
lfingers 7.12502
lthumb -27.5011 3.46463
rfemur -200.247 185.831 213.352
rtibia 41.0601
rfoot -12.9629 -365.802
rtoes -2.21349
lfemur -48.9408 13.3781 -12.1911
ltibia 77.6638
lfoot -3.34353 -16.3516
ltoes -14.5906
2617
root 2.81694 15.5519 -4.26648 -168.207 20.3828 -173.349
lowerback 8.55251 1.84696 0.516744
upperback -8.13236 2.65968 -2.58836
thorax -13.587 1.19454 -3.7187
lowerneck -18.1594 0.359151 -0.161093
upperneck 9.44276 0.36796 1.25701
head 5.79831 0.28363 0.464946
rclavicle 7.25564e-015 -2.22639e-014
rhumerus -32.305 1.28971 -48.522
rradius 98.188
rwrist -19.7435
rhand -53.2037 11.7262
rfingers 7.12502
rthumb -25.6608 -16.5644
lclavicle 7.25564e-015 -2.22639e-014
lhumerus -9.14198 -21.0431 21.9089
lradius 115.58
lwrist 33.4085
lhand -54.4346 342.372
lfingers 7.12502
lthumb -26.8393 10.4876
rfemur -200.454 186.163 214.789
rtibia 41.3378
rfoot -14.2172 -365.405
rtoes -0.342901
lfemur -50.8477 13.8587 -13.8495
ltibia 78.4263
lfoot -3.46947 -18.1145
ltoes -14.7316
2618
root 2.99682 15.4587 -4.21299 -167.701 21.1911 -172.752
lowerback 8.57839 2.31501 1.19963
upperback -8.10678 3.36461 -2.82584
thorax -13.4774 1.44681 -4.50093
lowerneck -18.2406 1.31417 0.339546
upperneck 9.21106 1.58747 0.831546
head 5.73492 0.860432 0.370632
rclavicle 1.74931e-014 1.43125e-014
rhumerus -34.0074 3.97295 -50.2801
rradius 101.046
rwrist -15.0808
rhand -53.4703 17.0122
rfingers 7.12502
rthumb -25.9162 -11.2413
lclavicle 1.74931e-014 1.43125e-014
lhumerus -9.6204 -17.1478 22.2068
lradius 112.783
lwrist 36.2153
lhand -53.1117 350.291
lfingers 7.12502
lthumb -25.5728 18.594
rfemur -200.665 186.483 216.142
rtibia 41.6219
rfoot -15.4459 -364.81
rtoes 1.50217
lfemur -52.681 14.2507 -15.6193
ltibia 78.8692
lfoot -3.33583 -19.7404
ltoes -14.6162
2619
root 3.17509 15.3665 -4.16162 -167.193 22.0444 -172.196
lowerback 8.59033 2.78586 1.81119
upperback -8.08684 4.06306 -3.07275
thorax -13.3475 1.70568 -5.24852
lowerneck -18.3618 2.27244 0.846458
upperneck 9.02935 2.80089 0.442949
head 5.70453 1.43794 0.28747
rclavicle 1.9133e-014 -3.49861e-014
rhumerus -35.4816 6.72458 -52.0706
rradius 103.546
rwrist -10.4858
rhand -53.6277 22.2689
rfingers 7.12502
rthumb -26.0669 -5.96248
lclavicle 1.9133e-014 -3.49861e-014
lhumerus -9.80445 -13.3186 22.2646
lradius 109.725
lwrist 38.9017
lhand -50.8618 358.306
lfingers 7.12502
lthumb -23.416 26.9017
rfemur -200.84 186.784 217.394
rtibia 41.9043
rfoot -16.6492 -364.047
rtoes 3.34675
lfemur -54.3895 14.5534 -17.4863
ltibia 79.0056
lfoot -2.95093 -21.1622
ltoes -14.2362
2620
root 3.3521 15.2755 -4.1122 -166.725 22.9353 -171.709
lowerback 8.61978 3.25032 2.33569
upperback -8.06738 4.73905 -3.33724
thorax -13.2154 1.96374 -5.96056
lowerneck -18.5164 3.23557 1.36144
upperneck 8.90509 4.00951 0.0947632
head 5.70758 2.01634 0.217957
rclavicle -4.10739e-014 -9.54166e-014
rhumerus -36.7097 9.54955 -53.8556
rradius 105.699
rwrist -5.88771
rhand -53.7192 27.4011
rfingers 7.12502
rthumb -26.1545 -0.817341
lclavicle -4.10739e-014 -9.54166e-014
lhumerus -9.7136 -9.6037 22.1042
lradius 106.408
lwrist 41.4836
lhand -47.5548 365.468
lfingers 7.12502
lthumb -20.2406 34.4331
rfemur -200.938 187.058 218.525
rtibia 42.1779
rfoot -17.8191 -363.189
rtoes 5.21342
lfemur -55.9243 14.7668 -19.4327
ltibia 78.8603
lfoot -2.33042 -22.3294
ltoes -13.4592
2621
root 3.52883 15.1838 -4.06436 -166.329 23.8531 -171.272
lowerback 8.69437 3.70622 2.77821
upperback -8.04092 5.39134 -3.60322
thorax -13.0939 2.21937 -6.62457
lowerneck -18.6709 4.20192 1.90425
upperneck 8.81703 5.2132 -0.259509
head 5.73295 2.59205 0.144767
rclavicle -8.20484e-014 -2.70347e-014
rhumerus -37.6786 12.4405 -55.564
rradius 107.523
rwrist -1.19066
rhand -53.791 32.223
rfingers 7.12502
rthumb -26.2232 4.01471
lclavicle -8.20484e-014 -2.70347e-014
lhumerus -9.3659 -6.04165 21.7726
lradius 102.835
lwrist 44.0152
lhand -43.1952 371.208
lfingers 7.12502
lthumb -16.0463 40.5635
rfemur -200.922 187.302 219.567
rtibia 42.4366
rfoot -18.9421 -362.332
rtoes 7.06914
lfemur -57.2494 14.9243 -21.4162
ltibia 78.4727
lfoot -1.63535 -23.1884
ltoes -12.5689
2622
root 3.70593 15.0919 -4.01831 -166.029 24.787 -170.906
lowerback 8.81605 4.14607 3.12819
upperback -8.00318 6.00839 -3.87401
thorax -12.9846 2.46748 -7.23766
lowerneck -18.7945 5.17097 2.48954
upperneck 8.74756 6.41056 -0.633279
head 5.77159 3.16371 0.0612772
rclavicle -1.36074e-014 7.63333e-014
rhumerus -38.3597 15.3924 -57.1248
rradius 109.044
rwrist 3.58377
rhand -53.8643 36.7129
rfingers 7.12502
rthumb -26.2935 8.51506
lclavicle -1.36074e-014 7.63333e-014
lhumerus -8.77629 -2.65451 21.2997
lradius 99.0124
lwrist 46.6286
lhand -37.9311 375.549
lfingers 7.12502
lthumb -10.9729 45.2421
rfemur -200.771 187.522 220.51
rtibia 42.672
rfoot -20.0264 -361.483
rtoes 9.04382
lfemur -58.3365 15.028 -23.4129
ltibia 77.8819
lfoot -0.891085 -23.7421
ltoes -11.5155
2623
root 3.88398 14.9994 -3.97378 -165.824 25.7307 -170.592
lowerback 8.97924 4.5829 3.39761
upperback -7.95356 6.61095 -4.13427
thorax -12.8846 2.71736 -7.79369
lowerneck -18.85 6.12094 3.0993
upperneck 8.66877 7.58241 -1.05358
head 5.80984 3.71951 -0.0412039
rclavicle 1.82758e-014 -3.02153e-014
rhumerus -38.7548 18.3621 -58.4395
rradius 110.288
rwrist 8.37873
rhand -53.9707 40.7564
rfingers 7.12502
rthumb -26.3953 12.5739
lclavicle 1.82758e-014 -3.02153e-014
lhumerus -7.94147 0.516204 20.7649
lradius 94.9598
lwrist 49.4825
lhand -32.0898 378.83
lfingers 7.12502
lthumb -5.33541 48.7429
rfemur -200.48 187.703 221.381
rtibia 42.8774
rfoot -21.0516 -360.699
rtoes 11.0993
lfemur -59.1898 15.0977 -25.3733
ltibia 77.1373
lfoot -0.178587 -24.0151
ltoes -10.3441
2624
root 4.06357 14.9064 -3.93096 -165.71 26.6742 -170.329
lowerback 9.17081 5.01557 3.59515
upperback -7.89469 7.19921 -4.38159
thorax -12.7913 2.96853 -8.2945
lowerneck -18.804 7.04466 3.7289
upperneck 8.55575 8.72424 -1.52966
head 5.83559 4.25708 -0.167009
rclavicle 5.87657e-014 -2.06736e-014
rhumerus -38.8483 21.3341 -59.4502
rradius 111.282
rwrist 13.0267
rhand -54.0975 44.4175
rfingers 7.12502
rthumb -26.5166 16.2532
lclavicle 5.87657e-014 -2.06736e-014
lhumerus -6.87156 3.46707 20.2157
lradius 90.6768
lwrist 52.7269
lhand -26.0494 381.373
lfingers 7.12502
lthumb 0.49805 51.3524
rfemur -200.053 187.846 222.19
rtibia 43.0483
rfoot -22.0133 -360.021
rtoes 13.1071
lfemur -59.8159 15.1395 -27.2655
ltibia 76.2825
lfoot 0.460941 -24.0698
ltoes -9.12056
2625
root 4.24486 14.8131 -3.88951 -165.662 27.6106 -170.094
lowerback 9.37695 5.44928 3.73896
upperback -7.83313 7.7839 -4.60508
thorax -12.704 3.22484 -8.73925
lowerneck -18.6584 7.92963 4.35799
upperneck 8.41308 9.82621 -2.06111
head 5.85031 4.77158 -0.314389
rclavicle 8.15017e-015 -1.27222e-014
rhumerus -38.653 24.3209 -60.1417
rradius 112.093
rwrist 17.2436
rhand -54.3044 47.4419
rfingers 7.12502
rthumb -26.7147 19.3076
lclavicle 8.15017e-015 -1.27222e-014
lhumerus -5.57048 6.19992 19.7135
lradius 86.1819
lwrist 56.4654
lhand -20.3494 383.554
lfingers 7.12502
lthumb 6.00247 53.4489
rfemur -199.514 187.926 222.967
rtibia 43.1867
rfoot -22.9019 -359.445
rtoes 15.0945
lfemur -60.2464 15.1497 -29.0329
ltibia 75.3654
lfoot 1.03636 -23.9687
ltoes -7.88428
